<?xml version="1.0" encoding="utf-8"?>
<!-- Generator: Adobe Illustrator 16.0.3, SVG Export Plug-In . SVG Version: 6.00 Build 0)  -->
<!DOCTYPE svg PUBLIC "-//W3C//DTD SVG 1.1//EN" "http://www.w3.org/Graphics/SVG/1.1/DTD/svg11.dtd">
<svg version="1.1" id="Layer_1" xmlns="http://www.w3.org/2000/svg" xmlns:xlink="http://www.w3.org/1999/xlink" x="0px" y="0px"
	 width="455.159px" height="48.596px" viewBox="0 0 455.159 48.596" enable-background="new 0 0 455.159 48.596"
	 xml:space="preserve">
<path fill="#303030" d="M17.937,18.545c6.024,0,10.925,4.901,10.925,10.925c0,6.024-4.901,10.928-10.925,10.928
	S7.011,35.494,7.011,29.469C7.011,23.446,11.913,18.545,17.937,18.545 M17.937,11.535C8.031,11.535,0,19.564,0,29.469
	c0,9.906,8.031,17.938,17.937,17.938s17.937-8.031,17.937-17.938C35.874,19.564,27.843,11.535,17.937,11.535L17.937,11.535z"/>
<rect x="49.494" y="0" fill="#303030" width="4.207" height="8.413"/>
<rect x="36.562" y="4.054" transform="matrix(-0.4808 -0.8769 0.8769 -0.4808 55.1448 44.9708)" fill="#303030" width="8.651" height="4.207"/>
<path fill="#303030" d="M62.022,32.719c-1.386,4.443-5.54,7.68-10.432,7.68c-6.025,0-10.926-4.901-10.926-10.926
	c0-6.023,4.901-10.927,10.926-10.927c4.703,0,8.719,2.986,10.257,7.163h7.28c-1.729-8.099-8.923-14.173-17.537-14.173
	c-9.906,0-17.937,8.03-17.937,17.938c0,9.904,8.03,17.938,17.937,17.938c8.796,0,16.108-6.334,17.637-14.688h-7.205V32.719z"/>
<rect x="14.3" y="34.318" transform="matrix(-0.7071 -0.7071 0.7071 -0.7071 17.6895 82.9732)" fill="#303030" width="23.459" height="7.011"/>
<rect x="60.171" y="1.838" transform="matrix(-0.877 -0.4805 0.4805 -0.877 113.9264 41.4919)" fill="#303030" width="4.207" height="8.651"/>
<g>
	<path fill="#303030" d="M90.548,16.099l7.853,15.809l7.819-15.809h4.726v23.798h-3.706l-0.034-17.78l-7.513,15.298h-2.618
		l-7.513-15.298v17.78h-3.773V16.099H90.548z"/>
	<path fill="#303030" d="M135.325,34.525h-12.001l-2.277,5.371h-4.182l10.505-23.799h4.113l10.403,23.799h-4.284L135.325,34.525z
		 M133.795,30.955l-4.488-10.573l-4.487,10.573H133.795z"/>
	<path fill="#303030" d="M163.646,39.896l-7.819-10.505l-4.046,4.451v6.054h-4.011V16.099h4.011v12.307l11.354-12.307h4.726
		l-9.213,10.164l9.825,13.634L163.646,39.896L163.646,39.896z"/>
	<path fill="#303030" d="M191.9,16.099v3.604h-12.987v6.459h11.627v3.569h-11.627v6.562h13.395v3.604h-17.406V16.099H191.9z"/>
	<path fill="#303030" d="M209.853,36.463c3.875,0,6.29-2.38,6.29-6.426V16.099h4.011v13.938c0,6.222-3.909,10.029-10.335,10.029
		c-6.425,0-10.369-3.811-10.369-10.029V16.099h4.011v13.938C203.461,34.049,205.943,36.463,209.853,36.463z"/>
	<path fill="#303030" d="M247.523,24.224c0,5.369-3.437,8.498-9.417,8.498h-5.474v7.175h-4.012V16.099h9.485
		C244.09,16.099,247.523,19.056,247.523,24.224z M243.682,24.326c0-3.128-2.072-4.624-5.745-4.624h-5.304v9.417h5.304
		C241.607,29.12,243.682,27.555,243.682,24.326z"/>
	<path fill="#303030" d="M282.509,34.525h-12.001l-2.277,5.371h-4.182l10.506-23.799h4.112l10.403,23.799h-4.284L282.509,34.525z
		 M280.979,30.955l-4.484-10.573l-4.487,10.573H280.979z"/>
	<path fill="#303030" d="M304.949,19.566c-4.76,0-8.499,3.672-8.499,8.36c0,4.691,3.739,8.396,8.499,8.396
		c2.38,0,4.828-1.088,6.63-2.821l2.38,2.651c-2.414,2.381-5.848,3.91-9.214,3.91c-6.97,0-12.374-5.271-12.374-12.104
		c0-6.766,5.473-11.967,12.511-11.967c3.365,0,6.73,1.396,9.043,3.671l-2.346,2.924C309.845,20.722,307.363,19.566,304.949,19.566z"
		/>
	<path fill="#303030" d="M335.957,34.525h-12.001l-2.277,5.371h-4.182l10.505-23.799h4.113l10.4,23.799h-4.281L335.957,34.525z
		 M334.427,30.955l-4.484-10.573l-4.487,10.573H334.427z"/>
	<path fill="#303030" d="M370.466,27.998c0,6.868-5.201,11.899-12.408,11.899h-9.652V16.099h9.757
		C365.299,16.099,370.466,21.094,370.466,27.998z M366.42,28.032c0-4.862-3.638-8.329-8.329-8.329h-5.677v16.59h5.847
		C362.885,36.293,366.42,32.859,366.42,28.032z"/>
	<path fill="#303030" d="M394.47,16.099v3.604h-12.983v6.459h11.627v3.569h-11.627v6.562h13.395v3.604h-17.406V16.099H394.47z"/>
	<path fill="#303030" d="M407.255,16.099l7.854,15.809l7.816-15.809h4.729v23.798h-3.706l-0.033-17.78L416.4,37.415h-2.617
		l-7.516-15.298v17.78h-3.771V16.099H407.255z"/>
	<path fill="#303030" d="M446.422,31.975v7.922h-3.978v-7.785l-8.873-16.013h4.045l6.8,11.593l6.663-11.593h4.08L446.422,31.975z"/>
</g>
</svg>
