<?xml version="1.0" encoding="utf-8"?>
<!-- Generator: Adobe Illustrator 16.0.3, SVG Export Plug-In . SVG Version: 6.00 Build 0)  -->
<!DOCTYPE svg PUBLIC "-//W3C//DTD SVG 1.1//EN" "http://www.w3.org/Graphics/SVG/1.1/DTD/svg11.dtd">
<svg version="1.1" id="Layer_1" xmlns="http://www.w3.org/2000/svg" xmlns:xlink="http://www.w3.org/1999/xlink" x="0px" y="0px"
	 width="1900px" height="450px" viewBox="0 0 1900 450" enable-background="new 0 0 1900 450" xml:space="preserve">
<path d="M346.414,342.445c-5.846,0-10.602,4.758-10.602,10.604s4.756,10.604,10.602,10.604s10.604-4.758,10.604-10.604
	C357.019,347.203,352.26,342.445,346.414,342.445 M346.414,335.643c9.617,0,17.408,7.795,17.408,17.409
	c0,9.61-7.792,17.405-17.408,17.405c-9.612,0-17.407-7.795-17.407-17.405C329.007,343.438,336.802,335.643,346.414,335.643
	L346.414,335.643z"/>
<path d="M1499.192,88.22c-7.604,0-13.787,6.186-13.787,13.791c0,7.601,6.186,13.787,13.787,13.787
	c7.603,0,13.791-6.186,13.791-13.787C1512.983,94.406,1506.795,88.22,1499.192,88.22 M1499.192,79.372
	c12.505,0,22.639,10.137,22.639,22.639c0,12.498-10.134,22.635-22.639,22.635c-12.5,0-22.64-10.137-22.64-22.635
	C1476.556,89.508,1486.692,79.372,1499.192,79.372L1499.192,79.372z"/>
<rect x="1705.531" y="304.037" transform="matrix(-0.7072 -0.707 0.707 -0.7072 2730.0654 1752.0978)" width="44.651" height="13.342"/>
<rect x="677.546" y="443.379" transform="matrix(-0.7072 -0.7071 0.7071 -0.7072 876.5734 1263.1584)" width="44.653" height="13.343"/>
<g>
	<g>
		<rect x="1300.029" y="351.629" width="8.764" height="17.527"/>
		
			<rect x="1273.052" y="360.051" transform="matrix(-0.4809 -0.8768 0.8768 -0.4809 1579.0394 1663.7828)" width="18.026" height="8.765"/>
		
			<rect x="1322.252" y="355.456" transform="matrix(-0.877 -0.4804 0.4804 -0.877 2315.033 1321.473)" width="8.761" height="18.026"/>
	</g>
</g>
<g>
	<g>
		<rect x="5.657" y="37.041" width="8.764" height="17.527"/>
		<rect x="27.891" y="40.86" transform="matrix(-0.8771 -0.4803 0.4803 -0.8771 36.622 109.1185)" width="8.762" height="18.028"/>
	</g>
</g>
<g>
	<g>
		<path id="SVGID_80_" d="M577.819,108.143c-1.065,3.416-4.262,5.903-8.021,5.903c-4.632,0-8.397-3.77-8.397-8.4
			c0-4.633,3.769-8.403,8.397-8.403c3.615,0,6.705,2.297,7.888,5.509h5.599c-1.329-6.229-6.86-10.899-13.484-10.899
			c-7.618,0-13.791,6.176-13.791,13.793c0,7.615,6.173,13.791,13.791,13.791c6.763,0,12.386-4.871,13.563-11.294H577.819z"/>
	</g>
	<g>
		<g>
			<path id="SVGID_1_" d="M577.819,108.143c-1.065,3.416-4.262,5.903-8.021,5.903c-4.632,0-8.397-3.77-8.397-8.4
				c0-4.633,3.769-8.403,8.397-8.403c3.615,0,6.705,2.297,7.888,5.509h5.599c-1.329-6.229-6.86-10.899-13.484-10.899
				c-7.618,0-13.791,6.176-13.791,13.793c0,7.615,6.173,13.791,13.791,13.791c6.763,0,12.386-4.871,13.563-11.294H577.819z"/>
		</g>
		<g>
			<g>
				<defs>
					<path id="SVGID_2_" d="M577.819,108.143c-1.065,3.416-4.262,5.903-8.021,5.903c-4.632,0-8.397-3.77-8.397-8.4
						c0-4.633,3.769-8.403,8.397-8.403c3.615,0,6.705,2.297,7.888,5.509h5.599c-1.329-6.229-6.86-10.899-13.484-10.899
						c-7.618,0-13.791,6.176-13.791,13.793c0,7.615,6.173,13.791,13.791,13.791c6.763,0,12.386-4.871,13.563-11.294H577.819z"/>
				</defs>
				<use xlink:href="#SVGID_2_"  overflow="visible"/>
				<clipPath id="SVGID_4_">
					<use xlink:href="#SVGID_2_"  overflow="visible"/>
				</clipPath>
				<g clip-path="url(#SVGID_4_)">
					<rect x="322.413" y="-190.057" width="462.358" height="462.359"/>
					<g>
						<path d="M752.308,90.137c-1.063,3.416-4.258,5.903-8.021,5.903c-4.631,0-8.4-3.768-8.4-8.4c0-4.633,3.771-8.402,8.4-8.402
							c3.616,0,6.706,2.297,7.889,5.509h5.599c-1.329-6.228-6.86-10.897-13.484-10.897c-7.616,0-13.791,6.174-13.791,13.791
							c0,7.617,6.175,13.791,13.791,13.791c6.765,0,12.387-4.869,13.563-11.294L752.308,90.137L752.308,90.137z"/>
					</g>
					<g>
						
							<rect x="601.122" y="-1.306" transform="matrix(-0.7071 -0.7071 0.7071 -0.7071 1040.5964 433.807)" width="18.041" height="5.39"/>
						<path d="M521.129,90.137c-1.063,3.416-4.259,5.903-8.021,5.903c-4.634,0-8.4-3.768-8.4-8.4c0-4.633,3.771-8.402,8.4-8.402
							c3.614,0,6.706,2.297,7.889,5.509h5.597c-1.329-6.228-6.857-10.897-13.484-10.897c-7.615,0-13.789,6.174-13.789,13.791
							c0,7.617,6.173,13.791,13.789,13.791c6.766,0,12.388-4.869,13.563-11.294L521.129,90.137L521.129,90.137z"/>
						<g>
							<rect x="610.304" y="100.762" width="3.234" height="6.468"/>
							
								<rect x="600.271" y="103.919" transform="matrix(-0.4807 -0.8769 0.8769 -0.4807 801.2117 685.5514)" width="6.653" height="3.235"/>
							
								<rect x="618.496" y="102.137" transform="matrix(-0.8772 -0.4801 0.4801 -0.8772 1113.4355 495.7136)" width="3.233" height="6.654"/>
						</g>
					</g>
					<g>
						
							<rect x="369.921" y="-1.28" transform="matrix(-0.7071 -0.7071 0.7071 -0.7071 645.8867 270.3728)" width="18.04" height="5.39"/>
						<g>
							<rect x="379.124" y="100.762" width="3.234" height="6.468"/>
							
								<rect x="369.134" y="103.878" transform="matrix(-0.4805 -0.877 0.877 -0.4805 458.9166 482.8281)" width="6.652" height="3.233"/>
							
								<rect x="387.33" y="102.166" transform="matrix(-0.8773 -0.48 0.48 -0.8773 679.5239 384.7307)" width="3.235" height="6.654"/>
						</g>
					</g>
					<g>
						<path d="M592.513,202.309c4.632,0,8.402,3.77,8.402,8.402c0,4.631-3.771,8.4-8.402,8.4s-8.397-3.77-8.397-8.4
							C584.112,206.079,587.881,202.309,592.513,202.309 M592.513,196.918c-7.616,0-13.792,6.176-13.792,13.793
							c0,7.615,6.179,13.791,13.792,13.791c7.619,0,13.793-6.176,13.793-13.791C606.306,203.094,600.132,196.918,592.513,196.918
							L592.513,196.918z"/>
						
							<rect x="716.692" y="229.887" transform="matrix(-0.7071 -0.7071 0.7071 -0.7071 1074.3958 910.2039)" width="18.041" height="5.389"/>
						
							<rect x="673.596" y="168.577" transform="matrix(-0.8772 -0.4801 0.4801 -0.8772 1184.9763 646.8831)" width="3.234" height="6.654"/>
					</g>
					<g>
						<path d="M361.333,202.309c4.632,0,8.403,3.77,8.403,8.402c0,4.631-3.771,8.4-8.403,8.4c-4.631,0-8.399-3.77-8.399-8.4
							C352.933,206.079,356.702,202.309,361.333,202.309 M361.333,196.918c-7.615,0-13.792,6.176-13.792,13.793
							c0,7.615,6.176,13.791,13.792,13.791c7.619,0,13.793-6.176,13.793-13.791C375.126,203.094,368.952,196.918,361.333,196.918
							L361.333,196.918z"/>
						
							<rect x="485.537" y="229.879" transform="matrix(-0.7071 -0.7071 0.7071 -0.7071 679.8182 746.7292)" width="18.042" height="5.389"/>
						
							<rect x="442.422" y="168.578" transform="matrix(-0.8773 -0.48 0.48 -0.8773 751.0585 535.8564)" width="3.233" height="6.654"/>
					</g>
				</g>
			</g>
		</g>
	</g>
</g>
<g>
	<g>
		<path id="SVGID_82_" d="M1585.96,452.498c-1.065,3.416-4.259,5.903-8.021,5.903c-4.635,0-8.4-3.771-8.4-8.4
			c0-4.633,3.769-8.403,8.4-8.403c3.612,0,6.702,2.297,7.889,5.512h5.596c-1.329-6.229-6.859-10.899-13.484-10.899
			c-7.614,0-13.791,6.176-13.791,13.793c0,7.615,6.177,13.791,13.791,13.791c6.767,0,12.39-4.871,13.563-11.294L1585.96,452.498
			L1585.96,452.498z"/>
	</g>
	<g>
		<g>
			<path id="SVGID_3_" d="M1585.96,452.498c-1.065,3.416-4.259,5.903-8.021,5.903c-4.635,0-8.4-3.771-8.4-8.4
				c0-4.633,3.769-8.403,8.4-8.403c3.612,0,6.702,2.297,7.889,5.512h5.596c-1.329-6.229-6.859-10.899-13.484-10.899
				c-7.614,0-13.791,6.176-13.791,13.793c0,7.615,6.177,13.791,13.791,13.791c6.767,0,12.39-4.871,13.563-11.294L1585.96,452.498
				L1585.96,452.498z"/>
		</g>
		<g>
			<g>
				<defs>
					<path id="SVGID_5_" d="M1585.96,452.498c-1.065,3.416-4.259,5.903-8.021,5.903c-4.635,0-8.4-3.771-8.4-8.4
						c0-4.633,3.769-8.403,8.4-8.403c3.612,0,6.702,2.297,7.889,5.512h5.596c-1.329-6.229-6.859-10.899-13.484-10.899
						c-7.614,0-13.791,6.176-13.791,13.793c0,7.615,6.177,13.791,13.791,13.791c6.767,0,12.39-4.871,13.563-11.294L1585.96,452.498
						L1585.96,452.498z"/>
				</defs>
				<use xlink:href="#SVGID_5_"  overflow="visible"/>
				<clipPath id="SVGID_6_">
					<use xlink:href="#SVGID_5_"  overflow="visible"/>
				</clipPath>
				<g clip-path="url(#SVGID_6_)">
					<rect x="1330.554" y="154.298" width="462.359" height="462.359"/>
					<g>
						<path d="M1644.858,203.312c-1.064,3.417-4.257,5.903-8.021,5.903c-4.632,0-8.399-3.767-8.399-8.4
							c0-4.633,3.771-8.402,8.399-8.402c3.615,0,6.704,2.297,7.888,5.509h5.6c-1.329-6.229-6.86-10.899-13.484-10.899
							c-7.616,0-13.791,6.175-13.791,13.792c0,7.617,6.175,13.791,13.791,13.791c6.766,0,12.386-4.868,13.563-11.294H1644.858z"/>
						<g>
							<rect x="1734.034" y="213.937" width="3.233" height="6.469"/>
							
								<rect x="1724.134" y="217.006" transform="matrix(-0.4809 -0.8768 0.8768 -0.4809 2366.5073 1838.3538)" width="6.651" height="3.234"/>
							
								<rect x="1742.289" y="215.363" transform="matrix(-0.8773 -0.48 0.48 -0.8773 3168.8167 1247.6034)" width="3.235" height="6.653"/>
						</g>
					</g>
					<g>
						<path d="M1413.679,203.312c-1.063,3.417-4.257,5.903-8.021,5.903c-4.633,0-8.4-3.767-8.4-8.4c0-4.633,3.768-8.402,8.4-8.402
							c3.615,0,6.704,2.297,7.888,5.509h5.598c-1.329-6.229-6.858-10.899-13.482-10.899c-7.618,0-13.792,6.175-13.792,13.792
							c0,7.617,6.174,13.791,13.792,13.791c6.763,0,12.386-4.868,13.562-11.294H1413.679z"/>
						<g>
							<rect x="1502.855" y="213.937" width="3.23" height="6.469"/>
							
								<rect x="1492.81" y="217.051" transform="matrix(-0.4808 -0.8768 0.8768 -0.4808 2023.719 1635.6683)" width="6.65" height="3.233"/>
							
								<rect x="1511.074" y="215.299" transform="matrix(-0.8772 -0.4801 0.4801 -0.8772 2734.6477 1136.6937)" width="3.233" height="6.652"/>
						</g>
					</g>
					<g>
						<path d="M1716.243,315.484c4.633,0,8.401,3.77,8.401,8.402c0,4.631-3.771,8.398-8.401,8.398s-8.399-3.771-8.399-8.398
							C1707.844,319.253,1711.612,315.484,1716.243,315.484 M1716.243,310.094c-7.615,0-13.792,6.176-13.792,13.792
							s6.177,13.792,13.792,13.792c7.619,0,13.794-6.176,13.794-13.792S1723.862,310.094,1716.243,310.094L1716.243,310.094z"/>
						<path d="M1760.449,434.492c-1.065,3.416-4.258,5.9-8.022,5.9c-4.631,0-8.396-3.768-8.396-8.397
							c0-4.633,3.769-8.402,8.396-8.402c3.617,0,6.706,2.297,7.892,5.509h5.596c-1.328-6.228-6.859-10.896-13.484-10.896
							c-7.613,0-13.791,6.174-13.791,13.791s6.178,13.791,13.791,13.791c6.769,0,12.391-4.869,13.563-11.294L1760.449,434.492
							L1760.449,434.492z"/>
					</g>
					<g>
						<path d="M1485.063,315.484c4.636,0,8.402,3.77,8.402,8.402c0,4.631-3.77,8.398-8.402,8.398c-4.632,0-8.396-3.771-8.396-8.398
							C1476.664,319.253,1480.432,315.484,1485.063,315.484 M1485.063,310.094c-7.612,0-13.791,6.176-13.791,13.792
							s6.179,13.792,13.791,13.792c7.619,0,13.793-6.176,13.793-13.792S1492.683,310.094,1485.063,310.094L1485.063,310.094z"/>
						
							<rect x="1609.171" y="343.101" transform="matrix(-0.7071 -0.7071 0.7071 -0.7071 2517.9651 1734.5105)" width="18.042" height="5.39"/>
						<path d="M1529.271,434.492c-1.066,3.416-4.263,5.9-8.023,5.9c-4.631,0-8.4-3.768-8.4-8.397c0-4.633,3.771-8.402,8.4-8.402
							c3.617,0,6.706,2.297,7.889,5.509h5.601c-1.33-6.228-6.861-10.896-13.486-10.896c-7.616,0-13.789,6.174-13.789,13.791
							s6.173,13.791,13.789,13.791c6.767,0,12.387-4.869,13.563-11.294L1529.271,434.492L1529.271,434.492z"/>
						<g>
							<rect x="1618.445" y="445.117" width="3.23" height="6.468"/>
							
								<rect x="1608.504" y="448.188" transform="matrix(-0.4808 -0.8768 0.8768 -0.4808 1992.4631 2079.3564)" width="6.651" height="3.233"/>
							
								<rect x="1626.62" y="446.433" transform="matrix(-0.8771 -0.4802 0.4802 -0.8771 2840.4204 1626.2156)" width="3.233" height="6.652"/>
						</g>
						
							<rect x="1566.184" y="281.832" transform="matrix(-0.877 -0.4805 0.4805 -0.877 2805.729 1288.5739)" width="3.231" height="6.654"/>
					</g>
					<g>
						
							<rect x="1378.144" y="343.009" transform="matrix(-0.7071 -0.7071 0.7071 -0.7071 2123.5879 1571.0261)" width="18.04" height="5.39"/>
						<g>
							<rect x="1387.265" y="445.117" width="3.234" height="6.468"/>
							
								<rect x="1377.327" y="448.254" transform="matrix(-0.4808 -0.8768 0.8768 -0.4808 1649.969 1876.7744)" width="6.652" height="3.234"/>
							
								<rect x="1395.508" y="446.546" transform="matrix(-0.8773 -0.48 0.48 -0.8773 2406.8481 1515.1456)" width="3.235" height="6.655"/>
						</g>
						
							<rect x="1335.012" y="281.769" transform="matrix(-0.8773 -0.48 0.48 -0.8773 2372.3718 1176.7788)" width="3.235" height="6.656"/>
					</g>
				</g>
			</g>
		</g>
	</g>
</g>
<rect x="119.266" y="209.481" transform="matrix(-0.4808 -0.8768 0.8768 -0.4808 2.4378 429.1696)" width="18.023" height="8.764"/>
<rect x="1812.114" y="59.461" transform="matrix(-0.8771 -0.4802 0.4802 -0.8771 3376.915 1000.9078)" width="8.762" height="18.028"/>
<rect x="61.993" y="441.017" transform="matrix(-0.8772 -0.4802 0.4802 -0.8772 -91.5039 876.6544)" width="8.761" height="18.028"/>
<rect x="322.907" y="64.957" width="12.199" height="24.398"/>
<rect x="1893.9" y="241.948" width="12.196" height="24.397"/>
</svg>
